# xmcd
# 
# Track frame offsets:
#     150
#     17475
#     31628
#     44384
#     60880
#     73030
#     85613
#     99100
#     111073
#     125058
#     137881
#     151258
#     168164
#     184310
#     198547
#     209017
# 
# Disc length: 2970
# 
# Revision: 0
# Processed by: cddbd v1.5.2PL0 Copyright (c) Steve Scherf et al.
# Submitted via: BonkEnc v1.0rc1
# 
DISCID=cf0b9810
DTITLE=Various Artist - Best of Englisch Country
DYEAR=0
DGENRE=Country
TTITLE0=C.W. McCall - Convoy
TTITLE1=Glen Campbell - Rhinstone Cowboy
TTITLE2=Don Williams - Where do i go from here
TTITLE3=Merle Haggard - I think i'll just stay here and drink
TTITLE4=Sandy Posey - Single Girl
TTITLE5=Freddy Weller - Midnight Driver
TTITLE6=Red Simpson - I got a beaver on my lop
TTITLE7=Kenny Rogers - Me and Bobby McGee
TTITLE8=Merle Haggard - Natural high
TTITLE9=Glen Campbell - Sunflower
TTITLE10=Alabama - Love in the first degree
TTITLE11=Belamy Brothers - Crossfire
TTITLE12=Billie Joe Spears - Blanket on the Ground
TTITLE13=Haward - Hello, Country Lady
TTITLE14=Lynn Anderson - Heaven's just a sin away
TTITLE15=Lynn Anderson - Two doors down
EXTD=
EXTT0=
EXTT1=
EXTT2=
EXTT3=
EXTT4=
EXTT5=
EXTT6=
EXTT7=
EXTT8=
EXTT9=
EXTT10=
EXTT11=
EXTT12=
EXTT13=
EXTT14=
EXTT15=
PLAYORDER=
